<svg preserveAspectRatio="none" overflow="visible" style="display: block;" width="4.58801" height="11.891" viewBox="0 0 4.58801 11.891" fill="none" xmlns="http://www.w3.org/2000/svg">
<path id="1" d="M0 1.38328L2.83529 0H3.11881V9.83758C3.11881 10.4906 3.14459 10.8972 3.19614 11.0576C3.25342 11.218 3.36797 11.3411 3.53981 11.4271C3.71165 11.513 4.06105 11.5617 4.58801 11.5731V11.891H0.206202V11.5731C0.756075 11.5617 1.1112 11.5158 1.27158 11.4357C1.43196 11.3497 1.54366 11.238 1.60666 11.1006C1.66967 10.9574 1.70117 10.5364 1.70117 9.83758V3.5484C1.70117 2.70068 1.67253 2.15654 1.61525 1.91597C1.57516 1.73267 1.5007 1.59807 1.39187 1.51215C1.28877 1.42623 1.16275 1.38328 1.01383 1.38328C0.801898 1.38328 0.506914 1.47206 0.128876 1.64962L0 1.38328Z" fill="#110E1D"/>
</svg>
